# xmcd
#
# Track frame offsets:
#	150
#	16285
#	38840
#	69850
#	90245
#	121935
#	137695
#	153862
#	168380
#	178600
#	191297
#	200157
#	215380
#	231877
#	252090
#	264010
#	280240
#	291872
#
# Disc length: 4058 seconds
#
# Revision: 1
# Processed by: cddbd v1.5.2PL0 Copyright (c) Steve Scherf et al.
# Submitted via: audiograbber 1.83.01
#
DISCID=ee0fd812
DTITLE=Primera Linea - House Music - Cd1
DYEAR=1998
DGENRE=House
TTITLE0=The Tamperer Feat. Maya - Feel It
TTITLE1=Mousse T. - Horny 98
TTITLE2=Ultra Naté - Found a Cure
TTITLE3=Paradisco - Hold your head Up
TTITLE4=Juliet Roberts - So Good
TTITLE5=Time Co. - Move It
TTITLE6=Neja - Restless
TTITLE7=Fogo - Another Star
TTITLE8=Gigi D'Agostino - Your Love (Elisir)
TTITLE9=Casanova - Hot Hot
TTITLE10=Sweet Tempo - Noise
TTITLE11=Funky Buzz - Take me Higher
TTITLE12=Housebeat - Je suis bon... tres Bon
TTITLE13=Fernandisco - F. Disco le Club
TTITLE14=Buzzy Bus Feat Andrew W. - Jump
TTITLE15=C.M.T. - Together
TTITLE16=Dj Reche - What's New
TTITLE17=Candy J. - Bamboozle
EXTD=crg
EXTT0=
EXTT1=
EXTT2=
EXTT3=
EXTT4=
EXTT5=
EXTT6=
EXTT7=
EXTT8=
EXTT9=
EXTT10=
EXTT11=
EXTT12=
EXTT13=
EXTT14=
EXTT15=
EXTT16=
EXTT17=
PLAYORDER=
